<svg xmlns="http://www.w3.org/2000/svg" aria-hidden="true" style="position:absolute;width:0;height:0;overflow:hidden"><defs><symbol id="icon-arrow" viewBox="0 0 32 32"><path fill="#9654ce" d="M8.037 11.166 14.5 22.36c.825 1.43 2.175 1.43 3 0l6.463-11.195c.826-1.43.15-2.598-1.5-2.598H9.537c-1.65 0-2.326 1.169-1.5 2.599" style="fill:var(--color1, #9654ce)"/></symbol><symbol id="icon-arrow-left" viewBox="0 0 16 32"><path fill="#f5efe6" d="m4.505 15.063 7.543-7.543 1.885 1.885-6.6 6.6 6.6 6.6-1.885 1.885-7.543-7.543a1.333 1.333 0 0 1 0-1.886z" style="fill:var(--color2, #f5efe6)"/></symbol><symbol id="icon-arrow-right" viewBox="0 0 16 32"><path fill="#f5efe6" d="M13.543 16.948 6 24.491l-1.885-1.885 6.6-6.6-6.6-6.6L6 7.521l7.543 7.543a1.333 1.333 0 0 1 0 1.886z" style="fill:var(--color2, #f5efe6)"/></symbol><symbol id="icon-close" viewBox="0 0 48 48" fill="none">
  <path d="M12.8 38L10 35.2L21.2 24L10 12.8L12.8 10L24 21.2L35.2 10L38 12.8L26.8 24L38 35.2L35.2 38L24 26.8L12.8 38Z" fill="url(#paint0_linear_3_29)" />
  <defs>
    <linearGradient id="paint0_linear_3_29" x1="23.8519" y1="35.3333" x2="23.8519" y2="20.3333" gradientUnits="userSpaceOnUse">
      <stop stop-color="#EAC274" />
      <stop offset="1" stop-color="#EA9E31" />
    </linearGradient>
  </defs>
</symbol><symbol id="icon-menu" viewBox="0 0 48 48" fill="none">
  <path d="M6 36V33H42V36H6ZM6 25.5V22.5H42V25.5H6ZM6 15V12H42V15H6Z" fill="url(#paint0_linear_3_15)" />
  <defs>
    <linearGradient id="paint0_linear_3_15" x1="23.8095" y1="33.7143" x2="23.8095" y2="20.8571" gradientUnits="userSpaceOnUse">
      <stop stop-color="#EAC274" />
      <stop offset="1" stop-color="#EA9E31" />
    </linearGradient>
  </defs>
</symbol>></defs></svg>