<svg xmlns="http://www.w3.org/2000/svg" aria-hidden="true" style="position:absolute;width:0;height:0;overflow:hidden"><defs><symbol id="icon-arrow" viewBox="0 0 32 32"><path fill="#9654ce" d="M8.037 11.166 14.5 22.36c.825 1.43 2.175 1.43 3 0l6.463-11.195c.826-1.43.15-2.598-1.5-2.598H9.537c-1.65 0-2.326 1.169-1.5 2.599" style="fill:var(--color1, #9654ce)"/></symbol><symbol id="icon-arrow-left" viewBox="0 0 16 32"><path fill="#f5efe6" d="m4.505 15.063 7.543-7.543 1.885 1.885-6.6 6.6 6.6 6.6-1.885 1.885-7.543-7.543a1.333 1.333 0 0 1 0-1.886z" style="fill:var(--color2, #f5efe6)"/></symbol><symbol id="icon-arrow-right" viewBox="0 0 16 32"><path fill="#f5efe6" d="M13.543 16.948 6 24.491l-1.885-1.885 6.6-6.6-6.6-6.6L6 7.521l7.543 7.543a1.333 1.333 0 0 1 0 1.886z" style="fill:var(--color2, #f5efe6)"/></symbol><symbol id="icon-close" viewBox="0 0 32 32"><path d="m8.533 25.333-1.867-1.867 7.467-7.467-7.467-7.467 1.867-1.867L16 14.132l7.467-7.467 1.867 1.867-7.467 7.467 7.467 7.467-1.867 1.867L16 17.866z"/></symbol><symbol id="icon-menu" viewBox="0 0 32 32"><path d="M4 24v-2h24v2zm0-7v-2h24v2zm0-7V8h24v2z"/></symbol></defs></svg>